<?xml version="1.0" encoding="utf-8"?>
<!-- Generator: Adobe Illustrator 28.0.0, SVG Export Plug-In . SVG Version: 6.00 Build 0)  -->
<svg version="1.1" id="Layer_1" xmlns="http://www.w3.org/2000/svg" xmlns:xlink="http://www.w3.org/1999/xlink" x="0px" y="0px"
	 viewBox="0 0 2160 2160" style="enable-background:new 0 0 2160 2160;" xml:space="preserve">
<style type="text/css">
	.st0{fill:#3B5BC3;}
	.st1{fill:#FFFFFF;}
</style>
<g>
	<g>
		<g>
			<path class="st0" d="M521.53,717.12c-2.08,19.74-3.51,38.83-4.28,57.25c-0.78,18.44-1.17,32.59-1.17,42.45
				c0,12.47,0.26,24.15,0.78,35.05c0.51,10.91,1.03,20.52,1.56,28.82h-17.92c-3.64-36.34-8.57-65.05-14.8-86.08
				c-6.23-21.03-17.13-36.22-32.71-45.57c-15.58-9.35-39.73-14.02-72.44-14.02h-42.06v443.23c0,20.78,1.94,36.36,5.84,46.74
				c3.89,10.4,11.55,17.41,22.98,21.03c11.42,3.64,28.04,5.98,49.86,7.01v15.58c-13.51-1.03-30.65-1.68-51.41-1.95
				c-20.78-0.25-41.81-0.39-63.09-0.39c-23.37,0-45.32,0.13-65.82,0.39c-20.52,0.27-37,0.92-49.47,1.95v-15.58
				c21.81-1.03,38.43-3.37,49.85-7.01c11.42-3.62,19.09-10.64,22.98-21.03c3.89-10.38,5.84-25.96,5.84-46.74V735.04h-42.06
				c-32.21,0-56.22,4.68-72.06,14.02c-15.84,9.35-26.87,24.54-33.1,45.57c-6.23,21.03-11.17,49.73-14.8,86.08H86.09
				c1.03-8.3,1.68-17.92,1.94-28.82c0.26-10.9,0.39-22.59,0.39-35.05c0-9.86-0.39-24.01-1.17-42.45
				c-0.78-18.43-2.22-37.51-4.28-57.25c21.81,0.52,45.57,1.05,71.27,1.56c25.7,0.52,51.53,0.78,77.5,0.78c25.96,0,49.59,0,70.89,0
				c21.28,0,44.79,0,70.49,0s51.53-0.26,77.51-0.78C476.6,718.17,500.22,717.64,521.53,717.12z"/>
			<path class="st0" d="M599.41,1274.08c-21.3,0-39.73-4.03-55.31-12.07c-15.58-8.05-27.4-19.34-35.44-33.89
				c-8.06-14.53-12.08-31.42-12.08-50.63c0-22.84,5.32-41.54,15.97-56.09c10.64-14.53,24.27-26.22,40.9-35.05
				c16.61-8.83,34.14-16.23,52.58-22.2c18.43-5.96,35.95-11.68,52.58-17.13c16.61-5.45,30.25-11.81,40.9-19.09
				c10.64-7.27,15.97-16.87,15.97-28.82v-48.29c0-21.81-3.25-38.43-9.74-49.86c-6.5-11.42-15.19-19.08-26.09-22.98
				c-10.9-3.9-23.11-5.84-36.61-5.84c-12.98,0-26.87,1.82-41.67,5.45c-14.8,3.64-26.62,11.17-35.44,22.59
				c9.86,2.08,18.43,7.28,25.7,15.58c7.27,8.31,10.9,18.96,10.9,31.94c0,12.98-4.16,23.25-12.46,30.77
				c-8.31,7.53-18.96,11.3-31.94,11.3c-15.07,0-26.09-4.8-33.1-14.41c-7.01-9.6-10.52-20.38-10.52-32.33
				c0-13.5,3.37-24.4,10.13-32.71c6.74-8.3,15.31-16.09,25.71-23.37c11.94-8.3,27.38-15.45,46.35-21.42
				c18.95-5.96,40.37-8.96,64.26-8.96c21.28,0,39.46,2.47,54.53,7.4c15.05,4.94,27.52,12.07,37.39,21.42
				c13.5,12.46,22.32,27.66,26.48,45.57c4.15,17.92,6.23,39.34,6.23,64.26v216.55c0,12.98,1.95,22.33,5.84,28.04
				c3.89,5.72,9.99,8.57,18.31,8.57c5.71,0,11.16-1.29,16.36-3.9c5.19-2.59,11.42-6.74,18.7-12.46l8.57,13.24
				c-10.9,8.31-21.3,15.19-31.16,20.64c-9.87,5.45-23.11,8.18-39.72,8.18c-15.07,0-27.54-2.6-37.39-7.79
				c-9.87-5.19-17.27-12.85-22.2-22.98c-4.94-10.13-7.4-22.98-7.4-38.56c-14.02,23.37-30.77,40.77-50.25,52.19
				C645.76,1268.37,623.81,1274.08,599.41,1274.08z M627.45,1242.92c17.13,0,33.1-4.93,47.9-14.8c14.8-9.86,28.16-24.66,40.12-44.4
				v-152.68c-6.23,8.84-15.32,16.24-27.27,22.2c-11.95,5.98-24.93,11.96-38.95,17.92c-14.02,5.98-27.4,12.99-40.12,21.03
				c-12.73,8.06-23.25,18.58-31.55,31.55c-8.31,12.98-12.46,29.87-12.46,50.63c0,20.78,5.57,37.39,16.75,49.86
				C593.04,1236.69,608.23,1242.92,627.45,1242.92z"/>
			<path class="st0" d="M921.11,657.92v538.27c0,21.81,3.89,36.61,11.69,44.4c7.79,7.79,21.03,11.69,39.72,11.69v16.36
				c-8.31-0.51-20.64-1.17-37-1.95c-16.36-0.78-32.85-1.17-49.47-1.17c-17.66,0-35.57,0.39-53.75,1.17
				c-18.18,0.78-31.68,1.44-40.51,1.95v-16.36c21.29,0,36.48-3.89,45.57-11.69c9.08-7.79,13.63-22.59,13.63-44.4V751.39
				c0-23.37-4.16-40.63-12.46-51.8c-8.31-11.16-23.89-16.75-46.74-16.75v-16.36c16.61,1.56,32.71,2.34,48.29,2.34
				c15.06,0,29.47-0.9,43.23-2.73C897.09,664.29,909.68,661.56,921.11,657.92z M1168.82,867.46v15.58
				c-12.99,1.05-25.2,4.55-36.61,10.52c-11.43,5.97-22.59,14.68-33.5,26.09l-109.83,115.29l10.9-21.81l144.89,198.64
				c8.83,11.95,17.26,21.3,25.32,28.04c8.04,6.75,17.78,10.9,29.21,12.46v16.36c-5.72-0.51-14.68-1.17-26.88-1.95
				c-12.21-0.78-24.28-1.17-36.22-1.17c-16.1,0-32.46,0.39-49.07,1.17c-16.63,0.78-29.09,1.44-37.39,1.95v-16.36
				c10.38,0,17.65-2.59,21.81-7.79c4.15-5.18,3.37-11.42-2.34-18.69l-89.58-130.87c-9.87-14.02-18.83-23.1-26.87-27.26
				c-8.06-4.15-19.61-6.49-34.67-7.01v-15.58c16.62-2.07,30.11-5.57,40.51-10.51c10.38-4.93,20.26-12.34,29.6-22.21l57.64-59.98
				c16.61-17.13,24.93-30.77,24.93-40.89c0-10.13-5.33-17.39-15.97-21.81c-10.65-4.41-24.54-6.62-41.68-6.62v-15.58
				c13.5,0.53,28.69,1.17,45.57,1.95c16.87,0.78,31.03,1.17,42.45,1.17c8.83,0,17.39-0.12,25.71-0.39
				c8.3-0.26,16.09-0.64,23.37-1.17C1157.39,868.5,1163.62,867.98,1168.82,867.46z"/>
			<path class="st0" d="M1338.62,856.55c45.69,0,81.4,13.9,107.11,41.67c25.7,27.79,38.56,71.02,38.56,129.7h-274.97l-0.78-14.8
				h200.98c1.03-25.44-1.05-48.94-6.23-70.5c-5.2-21.54-13.37-38.81-24.54-51.8c-11.17-12.97-25.59-19.47-43.23-19.47
				c-23.89,0-45.06,11.96-63.49,35.84c-18.44,23.89-29.48,61.8-33.1,113.73l2.34,3.12c-1.05,7.79-1.83,16.36-2.34,25.71
				c-0.53,9.35-0.78,18.69-0.78,28.04c0,35.32,5.71,65.7,17.14,91.14c11.42,25.45,26.35,44.79,44.79,58.03
				c18.43,13.24,37.51,19.86,57.25,19.86c15.58,0,30.38-2.46,44.4-7.4c14.02-4.93,27-13.11,38.95-24.54
				c11.94-11.41,22.32-26.74,31.16-45.96l15.58,6.23c-5.72,17.14-15.07,33.76-28.04,49.85c-12.99,16.11-29.35,29.21-49.07,39.34
				c-19.74,10.13-42.59,15.19-68.55,15.19c-37.39,0-69.46-8.57-96.2-25.7c-26.75-17.14-47.26-40.9-61.54-71.27
				c-14.29-30.38-21.42-65.3-21.42-104.77c0-45.69,7.27-85.03,21.81-118.02c14.53-32.97,35.05-58.42,61.54-76.34
				C1272.41,865.51,1303.3,856.55,1338.62,856.55z"/>
		</g>
	</g>
	<g>
		<g>
			<path class="st0" d="M1919.56,730.08c14.31-0.37,88.58-0.96,130.3,52.13c27.79,35.37,27.17,76.9,27.17,85.95
				c0,159.42-157.47,227.51-371.4,334.47c-141.94,71.95-233.32,130.26-268.34,186.68c38.88-31.11,75.85-46.69,106.97-46.69
				c58.32,0,97.2,73.9,151.66,73.9c69.99,0,134.17-134.17,155.56-134.17c5.86,0,11.67,7.77,11.67,17.49
				c0,35.02-132.22,202.26-200.3,202.26c-71.95,0-97.2-89.48-161.38-89.48c-48.6,0-116.69,83.62-155.56,83.62
				c-7.77,0-9.72-5.81-9.72-21.39c0-56.36,66.08-136.12,210.02-223.6c254.71-153.61,447.2-250.86,447.2-412.23
				c0-60.32-19.44-79.76-68.04-79.76v15.58c0,175-159.47,322.8-268.34,322.8c-54.46,0-89.43-40.83-89.43-95.29
				c0-105.01,133.98-243.95,320.66-273.11c-3.76-37.91-28.55-54.86-13.36-67.54c7.67-6.41,20.87-2.65,20.87-2.65
				C1913.84,667.84,1917.04,723.44,1919.56,730.08z M1600.62,996.46c0,42.79,21.39,70.04,58.37,70.04
				c83.62,0,229.46-130.31,229.46-293.64v-13.63C1725.07,778.67,1600.62,912.84,1600.62,996.46z"/>
		</g>
	</g>
</g>
</svg>
